<mxfile host="Electron" modified="2025-10-21T21:41:20.827Z" agent="Mozilla/5.0 (X11; Linux x86_64) AppleWebKit/537.36 (KHTML, like Gecko) draw.io/22.1.2 Chrome/114.0.5735.289 Electron/25.9.4 Safari/537.36" etag="z0FlrFSVznbmkZt_Gh18" version="22.1.2" type="device">
  <diagram name="Страница — 1" id="XEF0nhrB-nGWTFyIcYbM">
    <mxGraphModel dx="1475" dy="636" grid="1" gridSize="10" guides="1" tooltips="1" connect="1" arrows="1" fold="1" page="0" pageScale="1" pageWidth="827" pageHeight="1169" math="0" shadow="0">
      <root>
        <mxCell id="0" />
        <mxCell id="1" parent="0" />
        <mxCell id="KOfGCEZxVqLkgDQph2hK-3" value="" style="edgeStyle=none;curved=1;rounded=0;orthogonalLoop=1;jettySize=auto;html=1;fontSize=12;startSize=8;endSize=8;verticalAlign=middle;" parent="1" source="KOfGCEZxVqLkgDQph2hK-1" target="KOfGCEZxVqLkgDQph2hK-2" edge="1">
          <mxGeometry relative="1" as="geometry" />
        </mxCell>
        <mxCell id="KOfGCEZxVqLkgDQph2hK-6" value="" style="edgeStyle=none;curved=1;rounded=0;orthogonalLoop=1;jettySize=auto;html=1;fontSize=12;startSize=8;endSize=8;verticalAlign=middle;" parent="1" source="KOfGCEZxVqLkgDQph2hK-1" target="KOfGCEZxVqLkgDQph2hK-5" edge="1">
          <mxGeometry relative="1" as="geometry" />
        </mxCell>
        <mxCell id="KOfGCEZxVqLkgDQph2hK-9" value="" style="edgeStyle=none;curved=1;rounded=0;orthogonalLoop=1;jettySize=auto;html=1;fontSize=12;startSize=8;endSize=8;verticalAlign=middle;" parent="1" source="KOfGCEZxVqLkgDQph2hK-1" target="KOfGCEZxVqLkgDQph2hK-8" edge="1">
          <mxGeometry relative="1" as="geometry" />
        </mxCell>
        <mxCell id="KOfGCEZxVqLkgDQph2hK-12" value="" style="edgeStyle=none;curved=1;rounded=0;orthogonalLoop=1;jettySize=auto;html=1;fontSize=12;startSize=8;endSize=8;verticalAlign=middle;" parent="1" source="KOfGCEZxVqLkgDQph2hK-1" target="KOfGCEZxVqLkgDQph2hK-11" edge="1">
          <mxGeometry relative="1" as="geometry" />
        </mxCell>
        <mxCell id="KOfGCEZxVqLkgDQph2hK-1" value="Безопасность данных" style="rounded=1;whiteSpace=wrap;html=1;fontSize=16;fillColor=#fff2cc;strokeColor=#d6b656;verticalAlign=middle;" parent="1" vertex="1">
          <mxGeometry x="80" y="180" width="160" height="80" as="geometry" />
        </mxCell>
        <mxCell id="KOfGCEZxVqLkgDQph2hK-2" value="публичные данные" style="rounded=0;whiteSpace=wrap;html=1;fontSize=16;verticalAlign=middle;" parent="1" vertex="1">
          <mxGeometry x="-560" y="190" width="120" height="60" as="geometry" />
        </mxCell>
        <mxCell id="KOfGCEZxVqLkgDQph2hK-5" value="внутренние данные" style="rounded=0;whiteSpace=wrap;html=1;fontSize=16;verticalAlign=middle;" parent="1" vertex="1">
          <mxGeometry x="-170" y="670" width="120" height="60" as="geometry" />
        </mxCell>
        <mxCell id="KOfGCEZxVqLkgDQph2hK-8" value="конфиденциальные данные" style="rounded=0;whiteSpace=wrap;html=1;fontSize=16;verticalAlign=middle;" parent="1" vertex="1">
          <mxGeometry x="380" y="660" width="160" height="80" as="geometry" />
        </mxCell>
        <mxCell id="KOfGCEZxVqLkgDQph2hK-11" value="секретные данные" style="rounded=0;whiteSpace=wrap;html=1;fontSize=16;verticalAlign=middle;" parent="1" vertex="1">
          <mxGeometry x="740" y="190" width="120" height="60" as="geometry" />
        </mxCell>
        <mxCell id="-CTfuFNbhMAMTohUJ8x7-31" value="Данные" style="swimlane;fontStyle=0;childLayout=stackLayout;horizontal=1;startSize=26;fillColor=none;horizontalStack=0;resizeParent=1;resizeParentMax=0;resizeLast=0;collapsible=1;marginBottom=0;html=1;fontSize=16;verticalAlign=middle;" vertex="1" parent="1">
          <mxGeometry x="-720" y="290" width="440" height="120" as="geometry" />
        </mxCell>
        <mxCell id="-CTfuFNbhMAMTohUJ8x7-32" value="Информация о компании&lt;br&gt;" style="text;strokeColor=none;fillColor=none;align=left;verticalAlign=middle;spacingLeft=4;spacingRight=4;overflow=hidden;rotatable=0;points=[[0,0.5],[1,0.5]];portConstraint=eastwest;whiteSpace=wrap;html=1;fontSize=16;" vertex="1" parent="-CTfuFNbhMAMTohUJ8x7-31">
          <mxGeometry y="26" width="440" height="26" as="geometry" />
        </mxCell>
        <mxCell id="-CTfuFNbhMAMTohUJ8x7-33" value="Каталог недвижимости" style="text;strokeColor=none;fillColor=none;align=left;verticalAlign=middle;spacingLeft=4;spacingRight=4;overflow=hidden;rotatable=0;points=[[0,0.5],[1,0.5]];portConstraint=eastwest;whiteSpace=wrap;html=1;fontSize=16;" vertex="1" parent="-CTfuFNbhMAMTohUJ8x7-31">
          <mxGeometry y="52" width="440" height="26" as="geometry" />
        </mxCell>
        <mxCell id="-CTfuFNbhMAMTohUJ8x7-34" value="Общая информация о жилых коплексах" style="text;strokeColor=none;fillColor=none;align=left;verticalAlign=middle;spacingLeft=4;spacingRight=4;overflow=hidden;rotatable=0;points=[[0,0.5],[1,0.5]];portConstraint=eastwest;whiteSpace=wrap;html=1;fontSize=16;" vertex="1" parent="-CTfuFNbhMAMTohUJ8x7-31">
          <mxGeometry y="78" width="440" height="42" as="geometry" />
        </mxCell>
        <mxCell id="-CTfuFNbhMAMTohUJ8x7-38" value="Риски (оценка)" style="swimlane;fontStyle=0;childLayout=stackLayout;horizontal=1;startSize=26;fillColor=none;horizontalStack=0;resizeParent=1;resizeParentMax=0;resizeLast=0;collapsible=1;marginBottom=0;html=1;fontSize=16;verticalAlign=middle;" vertex="1" parent="1">
          <mxGeometry x="-716.66" y="420" width="433.33" height="220" as="geometry" />
        </mxCell>
        <mxCell id="-CTfuFNbhMAMTohUJ8x7-39" value="утечка данных&amp;nbsp;(нет)" style="text;strokeColor=none;fillColor=none;align=left;verticalAlign=middle;spacingLeft=4;spacingRight=4;overflow=hidden;rotatable=0;points=[[0,0.5],[1,0.5]];portConstraint=eastwest;whiteSpace=wrap;html=1;fontSize=16;" vertex="1" parent="-CTfuFNbhMAMTohUJ8x7-38">
          <mxGeometry y="26" width="433.33" height="26" as="geometry" />
        </mxCell>
        <mxCell id="-CTfuFNbhMAMTohUJ8x7-44" value="потеря данных&amp;nbsp;(нет)" style="text;strokeColor=none;fillColor=none;align=left;verticalAlign=middle;spacingLeft=4;spacingRight=4;overflow=hidden;rotatable=0;points=[[0,0.5],[1,0.5]];portConstraint=eastwest;whiteSpace=wrap;html=1;fontSize=16;" vertex="1" parent="-CTfuFNbhMAMTohUJ8x7-38">
          <mxGeometry y="52" width="433.33" height="42" as="geometry" />
        </mxCell>
        <mxCell id="-CTfuFNbhMAMTohUJ8x7-43" value="&lt;span style=&quot;color: rgb(0, 0, 0); font-family: Helvetica; font-size: 16px; font-style: normal; font-variant-ligatures: normal; font-variant-caps: normal; font-weight: 400; letter-spacing: normal; orphans: 2; text-align: left; text-indent: 0px; text-transform: none; widows: 2; word-spacing: 0px; -webkit-text-stroke-width: 0px; background-color: rgb(255, 255, 255); text-decoration-thickness: initial; text-decoration-style: initial; text-decoration-color: initial; float: none; display: inline !important;&quot;&gt;искажение данных (низкий)&lt;/span&gt;" style="text;strokeColor=none;fillColor=none;align=left;verticalAlign=middle;spacingLeft=4;spacingRight=4;overflow=hidden;rotatable=0;points=[[0,0.5],[1,0.5]];portConstraint=eastwest;whiteSpace=wrap;html=1;fontSize=16;" vertex="1" parent="-CTfuFNbhMAMTohUJ8x7-38">
          <mxGeometry y="94" width="433.33" height="42" as="geometry" />
        </mxCell>
        <mxCell id="-CTfuFNbhMAMTohUJ8x7-42" value="&lt;span style=&quot;color: rgb(0, 0, 0); font-family: Helvetica; font-size: 16px; font-style: normal; font-variant-ligatures: normal; font-variant-caps: normal; font-weight: 400; letter-spacing: normal; orphans: 2; text-align: left; text-indent: 0px; text-transform: none; widows: 2; word-spacing: 0px; -webkit-text-stroke-width: 0px; background-color: rgb(255, 255, 255); text-decoration-thickness: initial; text-decoration-style: initial; text-decoration-color: initial; float: none; display: inline !important;&quot;&gt;некачественные данные&amp;nbsp;(низкий)&lt;/span&gt;" style="text;strokeColor=none;fillColor=none;align=left;verticalAlign=middle;spacingLeft=4;spacingRight=4;overflow=hidden;rotatable=0;points=[[0,0.5],[1,0.5]];portConstraint=eastwest;whiteSpace=wrap;html=1;fontSize=16;" vertex="1" parent="-CTfuFNbhMAMTohUJ8x7-38">
          <mxGeometry y="136" width="433.33" height="42" as="geometry" />
        </mxCell>
        <mxCell id="-CTfuFNbhMAMTohUJ8x7-47" value="&lt;span style=&quot;color: rgb(0, 0, 0); font-family: Helvetica; font-size: 16px; font-style: normal; font-variant-ligatures: normal; font-variant-caps: normal; font-weight: 400; letter-spacing: normal; orphans: 2; text-align: left; text-indent: 0px; text-transform: none; widows: 2; word-spacing: 0px; -webkit-text-stroke-width: 0px; background-color: rgb(255, 255, 255); text-decoration-thickness: initial; text-decoration-style: initial; text-decoration-color: initial; float: none; display: inline !important;&quot;&gt;обесценивание данных&amp;nbsp;(нет)&lt;/span&gt;" style="text;strokeColor=none;fillColor=none;align=left;verticalAlign=middle;spacingLeft=4;spacingRight=4;overflow=hidden;rotatable=0;points=[[0,0.5],[1,0.5]];portConstraint=eastwest;whiteSpace=wrap;html=1;fontSize=16;" vertex="1" parent="-CTfuFNbhMAMTohUJ8x7-38">
          <mxGeometry y="178" width="433.33" height="42" as="geometry" />
        </mxCell>
        <mxCell id="-CTfuFNbhMAMTohUJ8x7-49" value="Данные" style="swimlane;fontStyle=0;childLayout=stackLayout;horizontal=1;startSize=26;fillColor=none;horizontalStack=0;resizeParent=1;resizeParentMax=0;resizeLast=0;collapsible=1;marginBottom=0;html=1;fontSize=16;verticalAlign=middle;" vertex="1" parent="1">
          <mxGeometry x="-330" y="750" width="440" height="246" as="geometry" />
        </mxCell>
        <mxCell id="-CTfuFNbhMAMTohUJ8x7-50" value="Отчетность компании" style="text;strokeColor=none;fillColor=none;align=left;verticalAlign=middle;spacingLeft=4;spacingRight=4;overflow=hidden;rotatable=0;points=[[0,0.5],[1,0.5]];portConstraint=eastwest;whiteSpace=wrap;html=1;fontSize=16;" vertex="1" parent="-CTfuFNbhMAMTohUJ8x7-49">
          <mxGeometry y="26" width="440" height="26" as="geometry" />
        </mxCell>
        <mxCell id="-CTfuFNbhMAMTohUJ8x7-51" value="Планы развития" style="text;strokeColor=none;fillColor=none;align=left;verticalAlign=middle;spacingLeft=4;spacingRight=4;overflow=hidden;rotatable=0;points=[[0,0.5],[1,0.5]];portConstraint=eastwest;whiteSpace=wrap;html=1;fontSize=16;" vertex="1" parent="-CTfuFNbhMAMTohUJ8x7-49">
          <mxGeometry y="52" width="440" height="26" as="geometry" />
        </mxCell>
        <mxCell id="-CTfuFNbhMAMTohUJ8x7-52" value="Структура организации" style="text;strokeColor=none;fillColor=none;align=left;verticalAlign=middle;spacingLeft=4;spacingRight=4;overflow=hidden;rotatable=0;points=[[0,0.5],[1,0.5]];portConstraint=eastwest;whiteSpace=wrap;html=1;fontSize=16;" vertex="1" parent="-CTfuFNbhMAMTohUJ8x7-49">
          <mxGeometry y="78" width="440" height="42" as="geometry" />
        </mxCell>
        <mxCell id="-CTfuFNbhMAMTohUJ8x7-61" value="Шаблоны договоров" style="text;strokeColor=none;fillColor=none;align=left;verticalAlign=middle;spacingLeft=4;spacingRight=4;overflow=hidden;rotatable=0;points=[[0,0.5],[1,0.5]];portConstraint=eastwest;whiteSpace=wrap;html=1;fontSize=16;" vertex="1" parent="-CTfuFNbhMAMTohUJ8x7-49">
          <mxGeometry y="120" width="440" height="42" as="geometry" />
        </mxCell>
        <mxCell id="-CTfuFNbhMAMTohUJ8x7-60" value="Информация о системах безопасности" style="text;strokeColor=none;fillColor=none;align=left;verticalAlign=middle;spacingLeft=4;spacingRight=4;overflow=hidden;rotatable=0;points=[[0,0.5],[1,0.5]];portConstraint=eastwest;whiteSpace=wrap;html=1;fontSize=16;" vertex="1" parent="-CTfuFNbhMAMTohUJ8x7-49">
          <mxGeometry y="162" width="440" height="42" as="geometry" />
        </mxCell>
        <mxCell id="-CTfuFNbhMAMTohUJ8x7-59" style="text;strokeColor=none;fillColor=none;align=left;verticalAlign=middle;spacingLeft=4;spacingRight=4;overflow=hidden;rotatable=0;points=[[0,0.5],[1,0.5]];portConstraint=eastwest;whiteSpace=wrap;html=1;fontSize=16;" vertex="1" parent="-CTfuFNbhMAMTohUJ8x7-49">
          <mxGeometry y="204" width="440" height="42" as="geometry" />
        </mxCell>
        <mxCell id="-CTfuFNbhMAMTohUJ8x7-53" value="Риски (оценка)" style="swimlane;fontStyle=0;childLayout=stackLayout;horizontal=1;startSize=26;fillColor=none;horizontalStack=0;resizeParent=1;resizeParentMax=0;resizeLast=0;collapsible=1;marginBottom=0;html=1;fontSize=16;verticalAlign=middle;" vertex="1" parent="1">
          <mxGeometry x="-326.66" y="1020" width="436.66" height="220" as="geometry" />
        </mxCell>
        <mxCell id="-CTfuFNbhMAMTohUJ8x7-54" value="утечка данных&amp;nbsp;(высокий)" style="text;strokeColor=none;fillColor=none;align=left;verticalAlign=middle;spacingLeft=4;spacingRight=4;overflow=hidden;rotatable=0;points=[[0,0.5],[1,0.5]];portConstraint=eastwest;whiteSpace=wrap;html=1;fontSize=16;" vertex="1" parent="-CTfuFNbhMAMTohUJ8x7-53">
          <mxGeometry y="26" width="436.66" height="26" as="geometry" />
        </mxCell>
        <mxCell id="-CTfuFNbhMAMTohUJ8x7-55" value="потеря данных&amp;nbsp;(средний)" style="text;strokeColor=none;fillColor=none;align=left;verticalAlign=middle;spacingLeft=4;spacingRight=4;overflow=hidden;rotatable=0;points=[[0,0.5],[1,0.5]];portConstraint=eastwest;whiteSpace=wrap;html=1;fontSize=16;" vertex="1" parent="-CTfuFNbhMAMTohUJ8x7-53">
          <mxGeometry y="52" width="436.66" height="42" as="geometry" />
        </mxCell>
        <mxCell id="-CTfuFNbhMAMTohUJ8x7-56" value="&lt;span style=&quot;color: rgb(0, 0, 0); font-family: Helvetica; font-size: 16px; font-style: normal; font-variant-ligatures: normal; font-variant-caps: normal; font-weight: 400; letter-spacing: normal; orphans: 2; text-align: left; text-indent: 0px; text-transform: none; widows: 2; word-spacing: 0px; -webkit-text-stroke-width: 0px; background-color: rgb(255, 255, 255); text-decoration-thickness: initial; text-decoration-style: initial; text-decoration-color: initial; float: none; display: inline !important;&quot;&gt;искажение данных (высокий)&lt;/span&gt;" style="text;strokeColor=none;fillColor=none;align=left;verticalAlign=middle;spacingLeft=4;spacingRight=4;overflow=hidden;rotatable=0;points=[[0,0.5],[1,0.5]];portConstraint=eastwest;whiteSpace=wrap;html=1;fontSize=16;" vertex="1" parent="-CTfuFNbhMAMTohUJ8x7-53">
          <mxGeometry y="94" width="436.66" height="42" as="geometry" />
        </mxCell>
        <mxCell id="-CTfuFNbhMAMTohUJ8x7-57" value="&lt;span style=&quot;color: rgb(0, 0, 0); font-family: Helvetica; font-size: 16px; font-style: normal; font-variant-ligatures: normal; font-variant-caps: normal; font-weight: 400; letter-spacing: normal; orphans: 2; text-align: left; text-indent: 0px; text-transform: none; widows: 2; word-spacing: 0px; -webkit-text-stroke-width: 0px; background-color: rgb(255, 255, 255); text-decoration-thickness: initial; text-decoration-style: initial; text-decoration-color: initial; float: none; display: inline !important;&quot;&gt;некачественные данные&amp;nbsp;(средний)&lt;/span&gt;" style="text;strokeColor=none;fillColor=none;align=left;verticalAlign=middle;spacingLeft=4;spacingRight=4;overflow=hidden;rotatable=0;points=[[0,0.5],[1,0.5]];portConstraint=eastwest;whiteSpace=wrap;html=1;fontSize=16;" vertex="1" parent="-CTfuFNbhMAMTohUJ8x7-53">
          <mxGeometry y="136" width="436.66" height="42" as="geometry" />
        </mxCell>
        <mxCell id="-CTfuFNbhMAMTohUJ8x7-58" value="&lt;span style=&quot;color: rgb(0, 0, 0); font-family: Helvetica; font-size: 16px; font-style: normal; font-variant-ligatures: normal; font-variant-caps: normal; font-weight: 400; letter-spacing: normal; orphans: 2; text-align: left; text-indent: 0px; text-transform: none; widows: 2; word-spacing: 0px; -webkit-text-stroke-width: 0px; background-color: rgb(255, 255, 255); text-decoration-thickness: initial; text-decoration-style: initial; text-decoration-color: initial; float: none; display: inline !important;&quot;&gt;обесценивание данных&amp;nbsp;(средний)&lt;/span&gt;" style="text;strokeColor=none;fillColor=none;align=left;verticalAlign=middle;spacingLeft=4;spacingRight=4;overflow=hidden;rotatable=0;points=[[0,0.5],[1,0.5]];portConstraint=eastwest;whiteSpace=wrap;html=1;fontSize=16;" vertex="1" parent="-CTfuFNbhMAMTohUJ8x7-53">
          <mxGeometry y="178" width="436.66" height="42" as="geometry" />
        </mxCell>
        <mxCell id="-CTfuFNbhMAMTohUJ8x7-62" value="Данные" style="swimlane;fontStyle=0;childLayout=stackLayout;horizontal=1;startSize=26;fillColor=none;horizontalStack=0;resizeParent=1;resizeParentMax=0;resizeLast=0;collapsible=1;marginBottom=0;html=1;fontSize=16;verticalAlign=middle;" vertex="1" parent="1">
          <mxGeometry x="240" y="750" width="440" height="246" as="geometry" />
        </mxCell>
        <mxCell id="-CTfuFNbhMAMTohUJ8x7-63" value="Персональный данные клиентов (ФИО, паспортные данные)&lt;br&gt;" style="text;strokeColor=none;fillColor=none;align=left;verticalAlign=middle;spacingLeft=4;spacingRight=4;overflow=hidden;rotatable=0;points=[[0,0.5],[1,0.5]];portConstraint=eastwest;whiteSpace=wrap;html=1;fontSize=16;" vertex="1" parent="-CTfuFNbhMAMTohUJ8x7-62">
          <mxGeometry y="26" width="440" height="26" as="geometry" />
        </mxCell>
        <mxCell id="-CTfuFNbhMAMTohUJ8x7-64" value="Контактная информация партнеров" style="text;strokeColor=none;fillColor=none;align=left;verticalAlign=middle;spacingLeft=4;spacingRight=4;overflow=hidden;rotatable=0;points=[[0,0.5],[1,0.5]];portConstraint=eastwest;whiteSpace=wrap;html=1;fontSize=16;" vertex="1" parent="-CTfuFNbhMAMTohUJ8x7-62">
          <mxGeometry y="52" width="440" height="26" as="geometry" />
        </mxCell>
        <mxCell id="-CTfuFNbhMAMTohUJ8x7-65" value="Финансовая информация" style="text;strokeColor=none;fillColor=none;align=left;verticalAlign=middle;spacingLeft=4;spacingRight=4;overflow=hidden;rotatable=0;points=[[0,0.5],[1,0.5]];portConstraint=eastwest;whiteSpace=wrap;html=1;fontSize=16;" vertex="1" parent="-CTfuFNbhMAMTohUJ8x7-62">
          <mxGeometry y="78" width="440" height="42" as="geometry" />
        </mxCell>
        <mxCell id="-CTfuFNbhMAMTohUJ8x7-66" value="Информация о договорах" style="text;strokeColor=none;fillColor=none;align=left;verticalAlign=middle;spacingLeft=4;spacingRight=4;overflow=hidden;rotatable=0;points=[[0,0.5],[1,0.5]];portConstraint=eastwest;whiteSpace=wrap;html=1;fontSize=16;" vertex="1" parent="-CTfuFNbhMAMTohUJ8x7-62">
          <mxGeometry y="120" width="440" height="42" as="geometry" />
        </mxCell>
        <mxCell id="-CTfuFNbhMAMTohUJ8x7-67" value="Юридические документы" style="text;strokeColor=none;fillColor=none;align=left;verticalAlign=middle;spacingLeft=4;spacingRight=4;overflow=hidden;rotatable=0;points=[[0,0.5],[1,0.5]];portConstraint=eastwest;whiteSpace=wrap;html=1;fontSize=16;" vertex="1" parent="-CTfuFNbhMAMTohUJ8x7-62">
          <mxGeometry y="162" width="440" height="42" as="geometry" />
        </mxCell>
        <mxCell id="-CTfuFNbhMAMTohUJ8x7-68" style="text;strokeColor=none;fillColor=none;align=left;verticalAlign=middle;spacingLeft=4;spacingRight=4;overflow=hidden;rotatable=0;points=[[0,0.5],[1,0.5]];portConstraint=eastwest;whiteSpace=wrap;html=1;fontSize=16;" vertex="1" parent="-CTfuFNbhMAMTohUJ8x7-62">
          <mxGeometry y="204" width="440" height="42" as="geometry" />
        </mxCell>
        <mxCell id="-CTfuFNbhMAMTohUJ8x7-69" value="Риски (оценка)" style="swimlane;fontStyle=0;childLayout=stackLayout;horizontal=1;startSize=26;fillColor=none;horizontalStack=0;resizeParent=1;resizeParentMax=0;resizeLast=0;collapsible=1;marginBottom=0;html=1;fontSize=16;verticalAlign=middle;" vertex="1" parent="1">
          <mxGeometry x="243.33999999999997" y="1020" width="436.66" height="220" as="geometry" />
        </mxCell>
        <mxCell id="-CTfuFNbhMAMTohUJ8x7-70" value="утечка данных&amp;nbsp;(высокий)" style="text;strokeColor=none;fillColor=none;align=left;verticalAlign=middle;spacingLeft=4;spacingRight=4;overflow=hidden;rotatable=0;points=[[0,0.5],[1,0.5]];portConstraint=eastwest;whiteSpace=wrap;html=1;fontSize=16;" vertex="1" parent="-CTfuFNbhMAMTohUJ8x7-69">
          <mxGeometry y="26" width="436.66" height="26" as="geometry" />
        </mxCell>
        <mxCell id="-CTfuFNbhMAMTohUJ8x7-71" value="потеря данных&amp;nbsp;(высокий)" style="text;strokeColor=none;fillColor=none;align=left;verticalAlign=middle;spacingLeft=4;spacingRight=4;overflow=hidden;rotatable=0;points=[[0,0.5],[1,0.5]];portConstraint=eastwest;whiteSpace=wrap;html=1;fontSize=16;" vertex="1" parent="-CTfuFNbhMAMTohUJ8x7-69">
          <mxGeometry y="52" width="436.66" height="42" as="geometry" />
        </mxCell>
        <mxCell id="-CTfuFNbhMAMTohUJ8x7-72" value="&lt;span style=&quot;color: rgb(0, 0, 0); font-family: Helvetica; font-size: 16px; font-style: normal; font-variant-ligatures: normal; font-variant-caps: normal; font-weight: 400; letter-spacing: normal; orphans: 2; text-align: left; text-indent: 0px; text-transform: none; widows: 2; word-spacing: 0px; -webkit-text-stroke-width: 0px; background-color: rgb(255, 255, 255); text-decoration-thickness: initial; text-decoration-style: initial; text-decoration-color: initial; float: none; display: inline !important;&quot;&gt;искажение данных (высокий)&lt;/span&gt;" style="text;strokeColor=none;fillColor=none;align=left;verticalAlign=middle;spacingLeft=4;spacingRight=4;overflow=hidden;rotatable=0;points=[[0,0.5],[1,0.5]];portConstraint=eastwest;whiteSpace=wrap;html=1;fontSize=16;" vertex="1" parent="-CTfuFNbhMAMTohUJ8x7-69">
          <mxGeometry y="94" width="436.66" height="42" as="geometry" />
        </mxCell>
        <mxCell id="-CTfuFNbhMAMTohUJ8x7-73" value="&lt;span style=&quot;color: rgb(0, 0, 0); font-family: Helvetica; font-size: 16px; font-style: normal; font-variant-ligatures: normal; font-variant-caps: normal; font-weight: 400; letter-spacing: normal; orphans: 2; text-align: left; text-indent: 0px; text-transform: none; widows: 2; word-spacing: 0px; -webkit-text-stroke-width: 0px; background-color: rgb(255, 255, 255); text-decoration-thickness: initial; text-decoration-style: initial; text-decoration-color: initial; float: none; display: inline !important;&quot;&gt;некачественные данные&amp;nbsp;(средний)&lt;/span&gt;" style="text;strokeColor=none;fillColor=none;align=left;verticalAlign=middle;spacingLeft=4;spacingRight=4;overflow=hidden;rotatable=0;points=[[0,0.5],[1,0.5]];portConstraint=eastwest;whiteSpace=wrap;html=1;fontSize=16;" vertex="1" parent="-CTfuFNbhMAMTohUJ8x7-69">
          <mxGeometry y="136" width="436.66" height="42" as="geometry" />
        </mxCell>
        <mxCell id="-CTfuFNbhMAMTohUJ8x7-74" value="&lt;span style=&quot;color: rgb(0, 0, 0); font-family: Helvetica; font-size: 16px; font-style: normal; font-variant-ligatures: normal; font-variant-caps: normal; font-weight: 400; letter-spacing: normal; orphans: 2; text-align: left; text-indent: 0px; text-transform: none; widows: 2; word-spacing: 0px; -webkit-text-stroke-width: 0px; background-color: rgb(255, 255, 255); text-decoration-thickness: initial; text-decoration-style: initial; text-decoration-color: initial; float: none; display: inline !important;&quot;&gt;обесценивание данных&amp;nbsp;(средний)&lt;/span&gt;" style="text;strokeColor=none;fillColor=none;align=left;verticalAlign=middle;spacingLeft=4;spacingRight=4;overflow=hidden;rotatable=0;points=[[0,0.5],[1,0.5]];portConstraint=eastwest;whiteSpace=wrap;html=1;fontSize=16;" vertex="1" parent="-CTfuFNbhMAMTohUJ8x7-69">
          <mxGeometry y="178" width="436.66" height="42" as="geometry" />
        </mxCell>
        <mxCell id="-CTfuFNbhMAMTohUJ8x7-75" value="Данные" style="swimlane;fontStyle=0;childLayout=stackLayout;horizontal=1;startSize=26;fillColor=none;horizontalStack=0;resizeParent=1;resizeParentMax=0;resizeLast=0;collapsible=1;marginBottom=0;html=1;fontSize=16;verticalAlign=middle;" vertex="1" parent="1">
          <mxGeometry x="580" y="260" width="440" height="246" as="geometry" />
        </mxCell>
        <mxCell id="-CTfuFNbhMAMTohUJ8x7-76" value="Данные для доступа" style="text;strokeColor=none;fillColor=none;align=left;verticalAlign=middle;spacingLeft=4;spacingRight=4;overflow=hidden;rotatable=0;points=[[0,0.5],[1,0.5]];portConstraint=eastwest;whiteSpace=wrap;html=1;fontSize=16;" vertex="1" parent="-CTfuFNbhMAMTohUJ8x7-75">
          <mxGeometry y="26" width="440" height="26" as="geometry" />
        </mxCell>
        <mxCell id="-CTfuFNbhMAMTohUJ8x7-77" value="Ключи шифрования" style="text;strokeColor=none;fillColor=none;align=left;verticalAlign=middle;spacingLeft=4;spacingRight=4;overflow=hidden;rotatable=0;points=[[0,0.5],[1,0.5]];portConstraint=eastwest;whiteSpace=wrap;html=1;fontSize=16;" vertex="1" parent="-CTfuFNbhMAMTohUJ8x7-75">
          <mxGeometry y="52" width="440" height="26" as="geometry" />
        </mxCell>
        <mxCell id="-CTfuFNbhMAMTohUJ8x7-78" value="Комерческая тайна" style="text;strokeColor=none;fillColor=none;align=left;verticalAlign=middle;spacingLeft=4;spacingRight=4;overflow=hidden;rotatable=0;points=[[0,0.5],[1,0.5]];portConstraint=eastwest;whiteSpace=wrap;html=1;fontSize=16;" vertex="1" parent="-CTfuFNbhMAMTohUJ8x7-75">
          <mxGeometry y="78" width="440" height="42" as="geometry" />
        </mxCell>
        <mxCell id="-CTfuFNbhMAMTohUJ8x7-79" value="Стратегические планы" style="text;strokeColor=none;fillColor=none;align=left;verticalAlign=middle;spacingLeft=4;spacingRight=4;overflow=hidden;rotatable=0;points=[[0,0.5],[1,0.5]];portConstraint=eastwest;whiteSpace=wrap;html=1;fontSize=16;" vertex="1" parent="-CTfuFNbhMAMTohUJ8x7-75">
          <mxGeometry y="120" width="440" height="42" as="geometry" />
        </mxCell>
        <mxCell id="-CTfuFNbhMAMTohUJ8x7-80" value="Внутренние финансовые показатели" style="text;strokeColor=none;fillColor=none;align=left;verticalAlign=middle;spacingLeft=4;spacingRight=4;overflow=hidden;rotatable=0;points=[[0,0.5],[1,0.5]];portConstraint=eastwest;whiteSpace=wrap;html=1;fontSize=16;" vertex="1" parent="-CTfuFNbhMAMTohUJ8x7-75">
          <mxGeometry y="162" width="440" height="42" as="geometry" />
        </mxCell>
        <mxCell id="-CTfuFNbhMAMTohUJ8x7-81" style="text;strokeColor=none;fillColor=none;align=left;verticalAlign=middle;spacingLeft=4;spacingRight=4;overflow=hidden;rotatable=0;points=[[0,0.5],[1,0.5]];portConstraint=eastwest;whiteSpace=wrap;html=1;fontSize=16;" vertex="1" parent="-CTfuFNbhMAMTohUJ8x7-75">
          <mxGeometry y="204" width="440" height="42" as="geometry" />
        </mxCell>
        <mxCell id="-CTfuFNbhMAMTohUJ8x7-82" value="Риски (оценка)" style="swimlane;fontStyle=0;childLayout=stackLayout;horizontal=1;startSize=26;fillColor=none;horizontalStack=0;resizeParent=1;resizeParentMax=0;resizeLast=0;collapsible=1;marginBottom=0;html=1;fontSize=16;verticalAlign=middle;" vertex="1" parent="1">
          <mxGeometry x="583.3399999999999" y="530" width="436.66" height="220" as="geometry" />
        </mxCell>
        <mxCell id="-CTfuFNbhMAMTohUJ8x7-83" value="утечка данных&amp;nbsp;(высокий)" style="text;strokeColor=none;fillColor=none;align=left;verticalAlign=middle;spacingLeft=4;spacingRight=4;overflow=hidden;rotatable=0;points=[[0,0.5],[1,0.5]];portConstraint=eastwest;whiteSpace=wrap;html=1;fontSize=16;" vertex="1" parent="-CTfuFNbhMAMTohUJ8x7-82">
          <mxGeometry y="26" width="436.66" height="26" as="geometry" />
        </mxCell>
        <mxCell id="-CTfuFNbhMAMTohUJ8x7-84" value="потеря данных&amp;nbsp;(высокий)" style="text;strokeColor=none;fillColor=none;align=left;verticalAlign=middle;spacingLeft=4;spacingRight=4;overflow=hidden;rotatable=0;points=[[0,0.5],[1,0.5]];portConstraint=eastwest;whiteSpace=wrap;html=1;fontSize=16;" vertex="1" parent="-CTfuFNbhMAMTohUJ8x7-82">
          <mxGeometry y="52" width="436.66" height="42" as="geometry" />
        </mxCell>
        <mxCell id="-CTfuFNbhMAMTohUJ8x7-85" value="&lt;span style=&quot;color: rgb(0, 0, 0); font-family: Helvetica; font-size: 16px; font-style: normal; font-variant-ligatures: normal; font-variant-caps: normal; font-weight: 400; letter-spacing: normal; orphans: 2; text-align: left; text-indent: 0px; text-transform: none; widows: 2; word-spacing: 0px; -webkit-text-stroke-width: 0px; background-color: rgb(255, 255, 255); text-decoration-thickness: initial; text-decoration-style: initial; text-decoration-color: initial; float: none; display: inline !important;&quot;&gt;искажение данных (высокий)&lt;/span&gt;" style="text;strokeColor=none;fillColor=none;align=left;verticalAlign=middle;spacingLeft=4;spacingRight=4;overflow=hidden;rotatable=0;points=[[0,0.5],[1,0.5]];portConstraint=eastwest;whiteSpace=wrap;html=1;fontSize=16;" vertex="1" parent="-CTfuFNbhMAMTohUJ8x7-82">
          <mxGeometry y="94" width="436.66" height="42" as="geometry" />
        </mxCell>
        <mxCell id="-CTfuFNbhMAMTohUJ8x7-86" value="&lt;span style=&quot;color: rgb(0, 0, 0); font-family: Helvetica; font-size: 16px; font-style: normal; font-variant-ligatures: normal; font-variant-caps: normal; font-weight: 400; letter-spacing: normal; orphans: 2; text-align: left; text-indent: 0px; text-transform: none; widows: 2; word-spacing: 0px; -webkit-text-stroke-width: 0px; background-color: rgb(255, 255, 255); text-decoration-thickness: initial; text-decoration-style: initial; text-decoration-color: initial; float: none; display: inline !important;&quot;&gt;некачественные данные&amp;nbsp;(средний)&lt;/span&gt;" style="text;strokeColor=none;fillColor=none;align=left;verticalAlign=middle;spacingLeft=4;spacingRight=4;overflow=hidden;rotatable=0;points=[[0,0.5],[1,0.5]];portConstraint=eastwest;whiteSpace=wrap;html=1;fontSize=16;" vertex="1" parent="-CTfuFNbhMAMTohUJ8x7-82">
          <mxGeometry y="136" width="436.66" height="42" as="geometry" />
        </mxCell>
        <mxCell id="-CTfuFNbhMAMTohUJ8x7-87" value="&lt;span style=&quot;color: rgb(0, 0, 0); font-family: Helvetica; font-size: 16px; font-style: normal; font-variant-ligatures: normal; font-variant-caps: normal; font-weight: 400; letter-spacing: normal; orphans: 2; text-align: left; text-indent: 0px; text-transform: none; widows: 2; word-spacing: 0px; -webkit-text-stroke-width: 0px; background-color: rgb(255, 255, 255); text-decoration-thickness: initial; text-decoration-style: initial; text-decoration-color: initial; float: none; display: inline !important;&quot;&gt;обесценивание данных&amp;nbsp;(средний)&lt;/span&gt;" style="text;strokeColor=none;fillColor=none;align=left;verticalAlign=middle;spacingLeft=4;spacingRight=4;overflow=hidden;rotatable=0;points=[[0,0.5],[1,0.5]];portConstraint=eastwest;whiteSpace=wrap;html=1;fontSize=16;" vertex="1" parent="-CTfuFNbhMAMTohUJ8x7-82">
          <mxGeometry y="178" width="436.66" height="42" as="geometry" />
        </mxCell>
      </root>
    </mxGraphModel>
  </diagram>
</mxfile>
